<svg xmlns="http://www.w3.org/2000/svg" xmlns:xlink="http://www.w3.org/1999/xlink" width="450" zoomAndPan="magnify" viewBox="0 0 337.5 412.499996" height="550" preserveAspectRatio="xMidYMid meet" version="1.0"><defs><clipPath id="a5a3fe1081"><path d="M 219 200 L 313.617188 200 L 313.617188 409.859375 L 219 409.859375 Z M 219 200 " clip-rule="nonzero"/></clipPath><clipPath id="69e887ffc4"><path d="M 24.128906 92 L 267.742188 92 L 267.742188 411.945312 L 24.128906 411.945312 Z M 24.128906 92 " clip-rule="nonzero"/></clipPath></defs><path fill="#735446" d="M 205.875 178.292969 C 205.875 178.292969 206.710938 199.089844 209.644531 209.074219 C 212.578125 219.054688 223.46875 232.78125 228.070312 233.199219 C 232.679688 233.613281 257.3125 226.957031 259.828125 219.472656 C 262.339844 211.984375 262.757812 185.363281 259.828125 181.621094 C 256.894531 177.875 228.070312 159.570312 220.949219 147.925781 C 213.832031 136.277344 205.875 178.292969 205.875 178.292969 " fill-opacity="1" fill-rule="nonzero"/><g clip-path="url(#a5a3fe1081)"><path fill="#008080" d="M 229.007812 306.472656 C 229.007812 306.472656 238.195312 409.761719 260.019531 409.378906 C 281.839844 408.996094 307.109375 404.019531 307.109375 404.019531 C 307.109375 404.019531 313.617188 317.566406 313.617188 310.296875 C 313.617188 303.027344 310.554688 251.382812 309.40625 246.023438 C 308.261719 240.671875 298.253906 230.1875 298.253906 230.1875 L 273.035156 200.460938 L 255.800781 202.175781 C 255.800781 202.175781 251.128906 213.984375 229.007812 216.15625 C 206.882812 218.324219 229.007812 306.472656 229.007812 306.472656 " fill-opacity="1" fill-rule="nonzero"/></g><path fill="#4d3236" d="M 246.863281 246.023438 C 244.523438 262.214844 247.632812 281.222656 254.90625 293.460938 C 262.179688 305.703125 254.140625 316.03125 257.96875 311.824219 C 261.796875 307.617188 272.652344 289.636719 271.503906 276.628906 C 270.355469 263.625 280.308594 260.179688 285.289062 246.40625 C 290.265625 232.636719 281.074219 217.714844 284.519531 217.714844 C 287.964844 217.714844 299.070312 231.488281 299.070312 231.488281 C 299.070312 231.488281 297.921875 217.332031 294.089844 211.214844 C 290.261719 205.09375 287.582031 193.230469 286.433594 182.136719 C 285.285156 171.042969 281.839844 167.601562 276.863281 151.71875 C 271.882812 135.835938 281.070312 130.492188 263.082031 107.433594 C 245.085938 84.378906 220.777344 88.414062 220.777344 88.414062 L 203.347656 88.414062 L 194.546875 143.5 C 194.546875 143.5 243.015625 167.28125 246.078125 182.964844 C 246.078125 182.964844 252.96875 203.8125 246.863281 246.023438 " fill-opacity="1" fill-rule="nonzero"/><path fill="#735446" d="M 189.671875 134.625 C 189.671875 134.625 190.507812 155.421875 193.441406 165.40625 C 196.375 175.390625 207.265625 189.113281 211.871094 189.53125 C 216.476562 189.945312 241.109375 180.84375 243.625 173.355469 C 246.136719 165.867188 251.460938 141.695312 248.527344 137.953125 C 245.597656 134.210938 211.871094 115.90625 204.75 104.257812 C 197.628906 92.613281 189.671875 134.625 189.671875 134.625 " fill-opacity="1" fill-rule="nonzero"/><path fill="#eba28c" d="M 206.414062 95.296875 C 206.414062 95.296875 203.347656 103.332031 202.96875 106.007812 C 202.585938 108.6875 193.011719 135.847656 174.25 149.621094 C 155.492188 163.390625 144.007812 104.863281 144.007812 104.863281 C 144.007812 104.863281 169.277344 63.546875 175.210938 63.164062 C 181.144531 62.78125 208.328125 73.109375 208.328125 73.109375 L 206.414062 95.296875 " fill-opacity="1" fill-rule="nonzero"/><path fill="#4d3236" d="M 111.082031 98.777344 C 111.082031 98.777344 112.230469 81.527344 108.785156 73.492188 C 105.339844 65.460938 112.992188 29.5 140.945312 23.761719 C 196.457031 0.0429688 224.027344 81.144531 224.027344 81.144531 C 224.027344 81.144531 220.582031 104.097656 188.039062 92.621094 C 208.710938 92.238281 203.347656 88.414062 203.347656 88.414062 C 203.347656 88.414062 196.460938 86.882812 190.332031 87.265625 C 184.207031 87.648438 183.824219 95.300781 179.996094 96.445312 C 176.167969 97.59375 181.144531 88.03125 181.144531 82.675781 C 181.144531 77.320312 188.039062 72.730469 183.441406 69.285156 C 178.847656 65.84375 164.679688 75.023438 166.019531 81.527344 C 167.359375 88.03125 155.492188 107.433594 155.492188 107.433594 L 111.082031 98.777344 " fill-opacity="1" fill-rule="nonzero"/><g clip-path="url(#69e887ffc4)"><path fill="#273057" d="M 30.679688 170.664062 C 30.679688 170.664062 54.035156 151.917969 55.949219 148.472656 C 57.863281 145.03125 56.332031 140.492188 60.925781 138.9375 C 65.523438 137.378906 81.984375 114.042969 85.8125 110.597656 C 89.640625 107.15625 91.554688 102.949219 96.914062 102.566406 C 102.277344 102.183594 103.421875 93.386719 112.992188 92.238281 C 122.566406 91.089844 157.402344 96.621094 166.019531 107.433594 C 174.636719 118.25 179.996094 138.9375 179.996094 138.9375 C 179.996094 138.9375 188.804688 146.546875 199.140625 151.71875 C 209.476562 156.886719 228.296875 172.472656 231.683594 185.578125 C 235.070312 198.691406 249.679688 265.148438 252.359375 289.253906 C 255.035156 313.351562 266.617188 406.855469 267.71875 409.070312 C 268.824219 411.285156 164.679688 415.496094 82.75 409.382812 C 63.988281 404.019531 79.6875 389.480469 55.949219 345.488281 C 32.210938 301.492188 25.320312 237.222656 25.320312 218.480469 C 25.320312 199.738281 22.640625 185.199219 25.320312 180.992188 C 28 176.78125 30.679688 170.664062 30.679688 170.664062 " fill-opacity="1" fill-rule="nonzero"/></g><path fill="#4d3236" d="M 193.472656 140 C 195.96875 142.972656 199.621094 143.109375 202.488281 140.652344 C 203.527344 139.761719 202.664062 137.585938 201.609375 138.492188 C 199.511719 140.289062 196.820312 140.570312 194.949219 138.339844 C 194.046875 137.269531 192.570312 138.917969 193.472656 140 " fill-opacity="1" fill-rule="nonzero"/><path fill="#4d3236" d="M 217.535156 141.113281 C 221.21875 144.148438 226.507812 144.371094 230.597656 141.976562 C 232.082031 141.109375 230.78125 138.910156 229.273438 139.792969 C 226.28125 141.542969 222.390625 141.761719 219.632812 139.484375 C 218.304688 138.390625 216.199219 140.007812 217.535156 141.113281 " fill-opacity="1" fill-rule="nonzero"/></svg>