<svg xmlns="http://www.w3.org/2000/svg" xmlns:xlink="http://www.w3.org/1999/xlink" width="400" zoomAndPan="magnify" viewBox="0 0 300 225" height="300" preserveAspectRatio="xMidYMid meet" version="1.0"><defs><clipPath id="id1"><path d="M 284 126 L 299.871094 126 L 299.871094 162 L 284 162 Z M 284 126 " clip-rule="nonzero"/></clipPath><clipPath id="id2"><path d="M 174 155.425781 L 299.871094 155.425781 L 299.871094 208 L 174 208 Z M 174 155.425781 " clip-rule="nonzero"/></clipPath><clipPath id="id3"><path d="M 0.136719 139 L 57.835938 139 L 57.835938 213.988281 L 0.136719 213.988281 Z M 0.136719 139 " clip-rule="nonzero"/></clipPath><clipPath id="id4"><path d="M 125 124.679688 L 194.714844 124.679688 L 194.714844 213.988281 L 125 213.988281 Z M 125 124.679688 " clip-rule="nonzero"/></clipPath></defs><path fill="#c48c73" d="M 121.179688 57.558594 C 117.835938 69.613281 108.367188 76.582031 93.160156 74.859375 C 81.132812 68.964844 75.246094 56.519531 77.164062 45.261719 L 78.828125 39.269531 C 82.175781 27.21875 95.519531 20.199219 107.394531 23.597656 C 119.277344 26.992188 126.191406 39.515625 122.84375 51.570312 L 121.179688 57.558594 " fill-opacity="1" fill-rule="nonzero"/><path fill="#c48c73" d="M 102.496094 75.476562 C 101.535156 75.183594 97.417969 83.007812 100.828125 94.40625 L 70.945312 94.328125 C 79.296875 56.480469 89.128906 35.9375 89.128906 35.9375 L 118.074219 30.851562 C 118.074219 30.851562 125.328125 35.585938 122.527344 51.449219 C 122.527344 51.449219 123.046875 56.371094 124.890625 60.007812 C 124.890625 60.007812 124.84375 62.34375 122.304688 62.964844 C 119.761719 63.582031 117.824219 71.449219 117.824219 71.449219 C 117.824219 71.449219 115.765625 79.503906 102.496094 75.476562 " fill-opacity="1" fill-rule="nonzero"/><path fill="#735446" d="M 211.429688 66.464844 C 214.777344 78.519531 224.246094 85.484375 239.449219 83.765625 C 251.480469 77.867188 257.363281 65.421875 255.445312 54.164062 L 253.78125 48.175781 C 250.433594 36.121094 237.09375 29.105469 225.214844 32.5 C 213.332031 35.894531 206.417969 48.421875 209.765625 60.472656 L 211.429688 66.464844 " fill-opacity="1" fill-rule="nonzero"/><path fill="#735446" d="M 230.113281 84.382812 C 231.074219 84.089844 235.191406 91.914062 231.785156 103.308594 L 261.664062 103.230469 C 253.316406 65.386719 243.484375 44.839844 243.484375 44.839844 L 214.535156 39.757812 C 214.535156 39.757812 207.285156 44.488281 210.082031 60.351562 C 210.082031 60.351562 209.566406 65.273438 207.71875 68.910156 C 207.71875 68.910156 207.769531 71.246094 210.308594 71.867188 C 212.847656 72.488281 214.785156 80.351562 214.785156 80.351562 C 214.785156 80.351562 216.847656 88.410156 230.113281 84.382812 " fill-opacity="1" fill-rule="nonzero"/><g clip-path="url(#id1)"><path fill="#735446" d="M 294.933594 126.515625 C 294.933594 126.515625 299.871094 152.871094 299.871094 155.707031 C 299.871094 158.539062 296.257812 161.777344 296.257812 161.777344 L 284.113281 135.46875 C 284.113281 135.46875 292.828125 126.0625 294.933594 126.515625 " fill-opacity="1" fill-rule="nonzero"/></g><path fill="#00312e" d="M 55.769531 171.492188 L 54.15625 180.457031 C 54.15625 180.457031 52.132812 182.820312 54.15625 184.84375 C 56.171875 186.867188 54.15625 209.9375 76.777344 211.558594 C 99.398438 213.175781 115.558594 211.558594 115.558594 211.558594 C 115.558594 211.558594 135.355469 209.128906 140.203125 203.058594 C 145.050781 196.988281 151.515625 189.296875 151.515625 189.296875 L 157.574219 185.25 L 166.460938 185.25 C 166.460938 185.25 173.328125 165.824219 168.480469 162.179688 C 163.632812 158.539062 160.835938 155.707031 155.566406 155.707031 C 150.300781 155.707031 129.292969 155.707031 129.292969 155.707031 L 55.769531 171.492188 " fill-opacity="1" fill-rule="nonzero"/><g clip-path="url(#id2)"><path fill="#00312e" d="M 290.996094 163.800781 C 290.996094 163.800781 300.714844 172.425781 299.808594 180.457031 C 298.90625 188.488281 294.839844 205.484375 270.429688 207.511719 C 246.019531 209.53125 220.707031 200.226562 220.707031 200.226562 L 185.453125 185.800781 L 174.605469 185.800781 C 174.605469 185.800781 173.25 178.441406 174.605469 172.941406 C 175.960938 167.445312 185 160.566406 191.78125 161.777344 C 198.558594 162.988281 210.085938 165.015625 210.085938 165.015625 C 210.085938 165.015625 209.285156 158.414062 213.027344 158.539062 C 216.765625 158.664062 248.734375 155.707031 248.734375 155.707031 L 290.996094 163.800781 " fill-opacity="1" fill-rule="nonzero"/></g><path fill="#fad3d8" d="M 126.46875 138.167969 C 136.160156 134.929688 146.394531 123.597656 146.394531 123.597656 C 146.394531 123.597656 132.390625 87.984375 129.160156 84.207031 C 125.929688 80.425781 110.308594 80.96875 110.308594 80.96875 L 104.382812 76.652344 C 104.382812 76.652344 84.988281 76.652344 79.066406 76.652344 C 73.140625 76.652344 68.292969 83.664062 68.292969 83.664062 C 68.292969 83.664062 48.363281 93.378906 44.59375 95 C 40.820312 96.617188 30.046875 133.851562 30.046875 133.851562 C 30.046875 133.851562 42.4375 145.183594 52.671875 146.261719 C 52.941406 153.683594 53.34375 160.5625 53.34375 160.5625 C 53.34375 160.5625 47.691406 167.039062 50.113281 170.277344 C 52.535156 173.511719 56.578125 173.917969 59 175.941406 C 61.425781 177.964844 69.90625 181.203125 78.796875 179.582031 C 87.683594 177.964844 92.53125 181.675781 98.589844 180.023438 C 104.652344 178.371094 118.386719 175.132812 118.386719 175.132812 C 118.386719 175.132812 132.929688 168.65625 133.335938 166.226562 C 133.738281 163.800781 133.738281 158.136719 132.121094 154.492188 C 130.503906 150.851562 126.46875 138.167969 126.46875 138.167969 " fill-opacity="1" fill-rule="nonzero"/><path fill="#066255" d="M 229.296875 166.632812 C 227.699219 165.773438 226.585938 146.800781 226.585938 143.5625 C 226.585938 140.324219 221.160156 136.683594 217.09375 135.46875 C 213.027344 134.257812 209.410156 133.039062 209.410156 133.039062 L 215.285156 96.617188 C 215.285156 96.617188 218.449219 94.1875 220.707031 90.546875 C 222.96875 86.902344 236.527344 90.546875 236.527344 90.546875 C 236.527344 90.546875 263.648438 88.523438 266.8125 88.925781 C 269.976562 89.332031 282.179688 97.019531 283.988281 100.257812 C 285.796875 103.496094 295.289062 124.949219 295.289062 124.949219 L 291.671875 130.613281 C 291.671875 130.613281 293.933594 150.445312 295.289062 154.492188 C 296.648438 158.539062 295.742188 169.0625 292.128906 169.464844 C 288.507812 169.871094 263.648438 171.492188 261.390625 172.703125 C 259.128906 173.917969 236.078125 170.277344 229.296875 166.632812 " fill-opacity="1" fill-rule="nonzero"/><g clip-path="url(#id3)"><path fill="#c48c73" d="M 42.4375 139.113281 C 42.4375 139.113281 42.84375 154.492188 42.4375 158.136719 C 42.035156 161.777344 32.742188 200.226562 32.742188 200.226562 L 7.695312 200.226562 C 7.695312 200.226562 -1.597656 204.675781 0.421875 205.484375 C 2.441406 206.292969 6.484375 205.484375 6.484375 205.484375 L 2.039062 209.53125 C 2.039062 209.53125 3.65625 213.988281 8.503906 213.988281 C 13.351562 213.988281 16.472656 209.9375 21.378906 210.34375 C 26.277344 210.75 36.738281 213.988281 42.617188 207.511719 C 48.5 201.035156 57.382812 164.207031 57.382812 164.207031 L 57.382812 141.945312 L 42.4375 139.113281 " fill-opacity="1" fill-rule="nonzero"/></g><g clip-path="url(#id4)"><path fill="#c48c73" d="M 141.414062 124.949219 C 141.414062 124.949219 149.40625 152.0625 149.808594 155.707031 C 150.210938 159.347656 161.929688 200.226562 161.929688 200.226562 L 186.972656 200.226562 C 186.972656 200.226562 196.265625 204.675781 194.246094 205.484375 C 192.226562 206.292969 188.183594 205.484375 188.183594 205.484375 L 192.628906 209.53125 C 192.628906 209.53125 191.015625 213.988281 186.167969 213.988281 C 181.316406 213.988281 178.195312 209.9375 173.292969 210.34375 C 168.390625 210.75 157.933594 213.988281 152.050781 207.511719 C 146.171875 201.035156 137.285156 164.207031 137.285156 164.207031 L 125.253906 134.257812 L 141.414062 124.949219 " fill-opacity="1" fill-rule="nonzero"/></g><path fill="#735446" d="M 228.269531 137.269531 C 221.804688 133.625 212.515625 133.625 212.515625 133.625 C 212.515625 133.625 211.300781 154.492188 212.515625 160.96875 C 213.726562 167.445312 213.859375 190.511719 211.976562 193.75 C 210.089844 196.988281 202.011719 196.988281 202.011719 196.988281 L 189.886719 201.722656 L 184.234375 206.292969 C 184.234375 206.292969 189.488281 215.828125 197.566406 212.277344 C 205.648438 208.722656 214.535156 208.722656 214.535156 208.722656 C 214.535156 208.722656 221.5625 206.929688 223.824219 194.15625 C 226.25 180.457031 228.269531 137.269531 228.269531 137.269531 " fill-opacity="1" fill-rule="nonzero"/><path fill="#00312e" d="M 213.304688 62.410156 C 213.601562 63.640625 214.503906 64.476562 215.324219 64.277344 C 216.140625 64.078125 216.5625 62.925781 216.265625 61.699219 C 215.972656 60.46875 215.070312 59.636719 214.253906 59.835938 C 213.433594 60.03125 213.011719 61.1875 213.304688 62.410156 " fill-opacity="1" fill-rule="nonzero"/><path fill="#00312e" d="M 219.082031 72.820312 C 218.863281 73.957031 217.996094 74.8125 216.664062 74.511719 C 215.617188 74.273438 215.175781 75.878906 216.222656 76.121094 C 217.535156 76.417969 218.863281 76.1875 219.769531 75.125 C 220.207031 74.605469 220.558594 73.9375 220.6875 73.265625 C 220.890625 72.214844 219.285156 71.765625 219.082031 72.820312 " fill-opacity="1" fill-rule="nonzero"/><path fill="#00312e" d="M 212.386719 53.5625 C 214.386719 52.578125 216.65625 53.316406 217.976562 55.027344 C 218.460938 55.65625 219.546875 55.035156 219.054688 54.398438 C 217.296875 52.117188 214.425781 51.167969 211.757812 52.484375 C 211.035156 52.839844 211.667969 53.917969 212.386719 53.5625 " fill-opacity="1" fill-rule="nonzero"/><path fill="#00312e" d="M 119.304688 53.507812 C 119.007812 54.738281 118.105469 55.574219 117.289062 55.375 C 116.472656 55.175781 116.046875 54.019531 116.34375 52.792969 C 116.640625 51.566406 117.539062 50.734375 118.359375 50.929688 C 119.175781 51.125 119.601562 52.28125 119.304688 53.507812 " fill-opacity="1" fill-rule="nonzero"/><path fill="#00312e" d="M 113.53125 63.917969 C 113.746094 65.054688 114.617188 65.910156 115.945312 65.605469 C 116.992188 65.371094 117.433594 66.976562 116.390625 67.214844 C 115.078125 67.511719 113.746094 67.28125 112.84375 66.222656 C 112.402344 65.703125 112.054688 65.035156 111.921875 64.359375 C 111.722656 63.308594 113.324219 62.859375 113.53125 63.917969 " fill-opacity="1" fill-rule="nonzero"/><path fill="#00312e" d="M 120.222656 44.65625 C 118.222656 43.671875 115.953125 44.414062 114.636719 46.121094 C 114.152344 46.753906 113.0625 46.128906 113.558594 45.492188 C 115.316406 43.210938 118.1875 42.265625 120.851562 43.578125 C 121.578125 43.933594 120.941406 45.011719 120.222656 44.65625 " fill-opacity="1" fill-rule="nonzero"/><path fill="#00312e" d="M 254.429688 75.183594 C 254.429688 75.183594 260.589844 50.207031 259.78125 46.972656 C 258.972656 43.734375 257.089844 37.527344 244.429688 29.703125 C 231.769531 21.878906 214.265625 36.71875 211.4375 37.527344 C 208.613281 38.335938 208.921875 44.8125 208.921875 44.8125 C 208.921875 44.8125 211.722656 52.023438 217.976562 55.027344 C 216.960938 53.445312 215.621094 48.050781 215.621094 48.050781 C 215.621094 48.050781 225.847656 62.300781 227.460938 62.054688 C 229.078125 61.8125 229.988281 57.257812 232.359375 59.804688 C 234.734375 62.351562 234.195312 69.632812 230.964844 70.445312 C 230.964844 70.445312 234.734375 69.90625 236.351562 73.144531 C 237.96875 76.382812 245.777344 79.347656 249.007812 78.808594 C 252.242188 78.269531 254.429688 75.183594 254.429688 75.183594 " fill-opacity="1" fill-rule="nonzero"/><path fill="#00312e" d="M 82.566406 22.742188 C 94.957031 9.574219 116.234375 22.960938 122.425781 26.464844 C 128.621094 29.972656 125.390625 35.910156 122.425781 38.070312 C 119.464844 40.226562 115.15625 36.71875 111.90625 36.71875 C 108.65625 36.71875 107.074219 42.980469 107.074219 42.980469 C 107.074219 42.980469 106.03125 47.382812 104.265625 48.929688 C 102.496094 50.480469 99.535156 43.910156 97.917969 46.386719 C 96.304688 48.859375 97.648438 54.664062 101.421875 55.40625 C 95.257812 61.253906 88.222656 65.324219 88.222656 65.324219 C 88.222656 65.324219 82.589844 66.433594 79.078125 63.316406 C 75.566406 60.191406 76.101562 47.355469 73.410156 42.980469 C 69.640625 30.78125 82.566406 22.742188 82.566406 22.742188 " fill-opacity="1" fill-rule="nonzero"/></svg>