<svg xmlns="http://www.w3.org/2000/svg" xmlns:xlink="http://www.w3.org/1999/xlink" width="450" zoomAndPan="magnify" viewBox="0 0 337.5 412.499996" height="550" preserveAspectRatio="xMidYMid meet" version="1.0"><defs><clipPath id="id1"><path d="M 91 0.0546875 L 164 0.0546875 L 164 110 L 91 110 Z M 91 0.0546875 " clip-rule="nonzero"/></clipPath><clipPath id="id2"><path d="M 273.363281 377 L 317.742188 377 L 317.742188 411 L 273.363281 411 Z M 273.363281 377 " clip-rule="nonzero"/></clipPath><clipPath id="id3"><path d="M 118 391.375 L 141 391.375 L 141 411.636719 L 118 411.636719 Z M 118 391.375 " clip-rule="nonzero"/></clipPath></defs><path fill="#735446" d="M 172.167969 151.460938 C 172.167969 151.460938 169.832031 176.695312 172.167969 188.871094 C 174.507812 201.046875 176.933594 239.191406 176.113281 243.527344 C 175.289062 247.855469 160.0625 243.527344 160.0625 243.527344 L 150.300781 174.128906 L 150.300781 151.460938 L 172.167969 151.460938 " fill-opacity="1" fill-rule="nonzero"/><g clip-path="url(#id1)"><path fill="#735446" d="M 108.53125 85.96875 L 120.628906 56.324219 L 150.300781 25.898438 L 159.671875 21.214844 L 163.289062 15.363281 C 163.289062 15.363281 159.671875 0.152344 158.113281 0.933594 C 156.550781 1.710938 151.863281 0.933594 150.300781 3.269531 C 148.738281 5.609375 142.992188 15.363281 135.910156 21.605469 C 128.832031 27.847656 105.40625 48.128906 105.40625 48.128906 C 105.40625 48.128906 93.382812 59.011719 91.976562 95.308594 C 90.570312 131.609375 108.53125 85.96875 108.53125 85.96875 " fill-opacity="1" fill-rule="nonzero"/></g><path fill="#735446" d="M 28.671875 346.023438 C 28.671875 346.023438 40.042969 336.019531 54.855469 310.929688 C 69.675781 285.835938 93.09375 275.640625 97.640625 271.726562 C 102.183594 267.8125 106.429688 257.207031 106.429688 257.207031 L 132.734375 257.769531 C 132.734375 257.769531 125.160156 278.117188 121.960938 281.613281 C 118.761719 285.109375 57.878906 336.402344 57.878906 336.402344 C 57.878906 336.402344 45.609375 346.839844 45.050781 352.171875 C 44.484375 357.511719 49.027344 374.546875 49.027344 374.546875 L 42.707031 377.980469 L 28.671875 346.023438 " fill-opacity="1" fill-rule="nonzero"/><path fill="#735446" d="M 123.101562 391.707031 C 127.675781 397.109375 137.238281 393.785156 136.824219 391.707031 C 136.40625 389.628906 138.902344 368.027344 141.605469 352.652344 C 144.308594 337.285156 139.734375 302.382812 140.152344 291.164062 C 140.566406 279.949219 143.0625 253.777344 143.0625 253.777344 L 111.875 258.34375 C 111.875 258.34375 119.363281 287.011719 118.113281 297.8125 C 116.867188 308.617188 115.621094 339.359375 118.945312 360.132812 C 122.269531 380.902344 123.101562 391.707031 123.101562 391.707031 " fill-opacity="1" fill-rule="nonzero"/><path fill="#735446" d="M 159.113281 80.71875 C 155.742188 92.105469 146.207031 98.691406 130.890625 97.066406 C 118.773438 91.492188 112.847656 79.738281 114.78125 69.101562 L 116.457031 63.4375 C 119.828125 52.050781 133.265625 45.417969 145.230469 48.628906 C 157.195312 51.835938 164.160156 63.667969 160.792969 75.058594 L 159.113281 80.71875 " fill-opacity="1" fill-rule="nonzero"/><path fill="#735446" d="M 115.472656 110.078125 C 123.882812 74.320312 126.828125 60.289062 126.828125 60.289062 L 155.988281 55.484375 C 155.988281 55.484375 163.289062 59.957031 160.46875 74.945312 C 160.46875 74.945312 159.957031 76.457031 162.515625 78.621094 C 165.074219 80.785156 160.46875 82.4375 160.46875 82.4375 C 154.867188 103.785156 139.457031 97.113281 140.296875 97.648438 C 141.136719 98.179688 135.179688 104.761719 138.613281 115.53125 L 115.472656 110.078125 " fill-opacity="1" fill-rule="nonzero"/><path fill="#fad3d8" d="M 310.941406 383.835938 C 310.941406 383.835938 303.824219 370.476562 298.789062 341.78125 C 293.746094 313.089844 275.417969 295.3125 272.535156 290.050781 C 269.660156 284.789062 269.421875 273.371094 269.421875 273.371094 L 244.59375 264.65625 C 244.59375 264.65625 244.523438 286.359375 246.289062 290.761719 C 248.050781 295.15625 286.988281 364.566406 286.988281 364.566406 C 286.988281 364.566406 294.804688 378.648438 293.453125 383.835938 C 292.101562 389.035156 281.851562 403.386719 281.851562 403.386719 L 286.558594 408.820312 L 310.941406 383.835938 " fill-opacity="1" fill-rule="nonzero"/><path fill="#fad3d8" d="M 184.085938 399.75 C 184.085938 399.75 202.820312 389.5 206.832031 384.59375 C 210.847656 379.695312 226.015625 313.289062 225.570312 309.28125 C 225.121094 305.269531 227.800781 282.09375 227.800781 282.09375 L 253.003906 282.09375 C 253.003906 282.09375 247.867188 296.355469 247.867188 305.710938 C 247.867188 315.070312 248.761719 337.355469 243.410156 348.945312 C 238.054688 360.53125 219.996094 382.367188 218.542969 389.5 C 217.09375 396.628906 218.542969 399.75 218.542969 399.75 L 184.085938 399.75 " fill-opacity="1" fill-rule="nonzero"/><path fill="#fad3d8" d="M 177.105469 29.382812 L 170.898438 14.019531 C 170.898438 14.019531 169.824219 11.445312 167 10.777344 C 164.179688 10.109375 154.558594 6.585938 154.558594 6.585938 L 151.558594 8.097656 L 145.25 7.921875 L 138.515625 11.480469 C 138.515625 11.480469 137.179688 15.460938 142.828125 15.96875 C 148.472656 16.476562 163.65625 24.878906 163.65625 24.878906 C 163.65625 24.878906 166.464844 33.84375 169.535156 35.425781 C 172.605469 37.007812 178.90625 33.839844 177.105469 29.382812 " fill-opacity="1" fill-rule="nonzero"/><path fill="#fad3d8" d="M 282.746094 214.589844 L 276.300781 229.851562 C 276.300781 229.851562 275.246094 232.433594 276.773438 234.898438 C 278.300781 237.359375 282.632812 246.636719 282.632812 246.636719 L 285.824219 247.679688 L 290.171875 252.257812 L 297.457031 254.480469 C 297.457031 254.480469 301.214844 252.601562 297.570312 248.261719 C 293.929688 243.917969 289.097656 227.261719 289.097656 227.261719 C 289.097656 227.261719 293.441406 218.925781 292.382812 215.640625 C 291.320312 212.355469 284.621094 210.160156 282.746094 214.589844 " fill-opacity="1" fill-rule="nonzero"/><path fill="#fad3d8" d="M 215.566406 75.269531 C 218.9375 86.652344 228.476562 93.242188 243.789062 91.613281 C 255.910156 86.042969 261.835938 74.285156 259.902344 63.644531 L 258.226562 57.984375 C 254.855469 46.597656 241.417969 39.96875 229.449219 43.175781 C 217.484375 46.382812 210.519531 58.21875 213.890625 69.605469 L 215.566406 75.269531 " fill-opacity="1" fill-rule="nonzero"/><path fill="#fad3d8" d="M 260.472656 110.007812 C 252.0625 74.246094 247.855469 54.835938 247.855469 54.835938 L 218.699219 50.03125 C 218.699219 50.03125 211.394531 54.503906 214.210938 69.492188 C 214.210938 69.492188 214.726562 71.003906 212.167969 73.167969 C 209.613281 75.332031 214.210938 76.984375 214.210938 76.984375 C 219.820312 98.332031 235.230469 91.664062 234.386719 92.191406 C 233.546875 92.726562 239.503906 99.3125 236.066406 110.078125 L 260.472656 110.007812 " fill-opacity="1" fill-rule="nonzero"/><path fill="#4d3236" d="M 267.421875 178.03125 C 267.421875 178.03125 276.101562 195.191406 279.523438 210.15625 C 282.953125 225.125 287.335938 292.328125 286.550781 293.496094 C 285.769531 294.667969 260.359375 291.9375 235.785156 293.496094 C 211.207031 295.058594 193.640625 285.695312 193.640625 285.695312 C 193.640625 285.695312 216.675781 206.117188 220.574219 176.082031 C 224.480469 146.046875 267.421875 178.03125 267.421875 178.03125 " fill-opacity="1" fill-rule="nonzero"/><path fill="#066255" d="M 276.402344 105.867188 C 283.039062 107.816406 288.503906 116.007812 288.503906 116.007812 L 304.117188 168.28125 C 304.117188 168.28125 307.632812 180.375 304.117188 187.394531 C 300.605469 194.414062 293.96875 227.964844 293.96875 227.964844 C 293.96875 227.964844 283.035156 225.625 280.304688 224.0625 L 283.820312 178.03125 C 283.820312 178.03125 277.574219 157.359375 277.574219 158.527344 C 277.574219 159.695312 273.667969 179.984375 273.667969 181.15625 C 273.667969 182.324219 255.320312 181.15625 251.023438 179.984375 C 246.730469 178.8125 232.675781 181.542969 223.699219 179.59375 C 214.71875 177.644531 217.84375 172.960938 217.84375 172.960938 C 217.84375 172.960938 220.574219 163.597656 214.328125 153.070312 C 208.082031 142.535156 214.324219 116.398438 212.378906 112.109375 C 210.425781 107.816406 180.757812 75.828125 179.191406 72.707031 C 177.628906 69.585938 165.136719 33.699219 165.917969 32.140625 C 166.699219 30.582031 176.277344 23.949219 176.277344 23.949219 C 176.277344 23.949219 194.417969 55.933594 196.367188 60.226562 C 198.324219 64.515625 219.792969 88.703125 219.792969 88.703125 C 219.792969 88.703125 231.773438 99.164062 235.785156 102.582031 C 239.792969 106 248.089844 111.980469 260.472656 105.148438 C 272.855469 98.3125 276.402344 105.867188 276.402344 105.867188 " fill-opacity="1" fill-rule="nonzero"/><g clip-path="url(#id2)"><path fill="#e090ad" d="M 280.261719 409.648438 C 291.105469 413.007812 296.289062 404.597656 298.59375 401.851562 C 300.894531 399.097656 307.976562 396.683594 311.050781 395.542969 C 314.125 394.398438 318.332031 388.757812 317.722656 385.425781 C 317.109375 382.09375 309.160156 377.628906 309.160156 377.628906 C 309.160156 377.628906 298.066406 393.207031 291.683594 398.972656 C 288.542969 391.71875 286.441406 396.03125 286.441406 396.03125 C 286.441406 396.03125 275.230469 401.550781 274.058594 403.113281 C 271.71875 406.234375 280.261719 409.648438 280.261719 409.648438 " fill-opacity="1" fill-rule="nonzero"/></g><path fill="#e090ad" d="M 199.167969 408.414062 C 202.402344 406.855469 209.847656 405.226562 213.121094 405.457031 C 216.390625 405.675781 222.554688 402.269531 223.367188 398.980469 C 224.183594 395.695312 218.78125 388.351562 218.78125 388.351562 C 218.78125 388.351562 202.25 397.980469 194.058594 400.609375 C 194.183594 392.707031 190.492188 395.773438 190.492188 395.773438 L 178.296875 400.394531 C 178.296875 400.394531 170.996094 405.164062 172.558594 408.820312 C 174.117188 412.472656 199.167969 408.414062 199.167969 408.414062 " fill-opacity="1" fill-rule="nonzero"/><path fill="#e090ad" d="M 66.9375 273.210938 C 70.628906 251.757812 91.746094 197.921875 94.871094 192.460938 C 97.992188 187.003906 103.066406 173.347656 103.066406 173.347656 C 103.066406 166.324219 92.527344 131.609375 92.527344 131.609375 C 92.527344 131.609375 89.164062 110.535156 92.527344 91.820312 C 100.332031 81.289062 112.167969 81.675781 112.167969 81.675781 L 108.53125 101.960938 C 108.53125 101.960938 136.25 103.128906 145.230469 106.640625 C 154.210938 110.152344 163.1875 114.054688 163.582031 117.175781 C 163.972656 120.296875 172.558594 137.847656 172.167969 153.457031 C 168.902344 160.996094 154.597656 158.136719 154.597656 158.136719 L 154.597656 180.761719 C 154.597656 180.761719 160.066406 199.875 164.363281 209.628906 C 168.652344 219.378906 179.582031 258.386719 184.269531 260.726562 C 184.269531 260.726562 166.703125 268.53125 157.332031 284.523438 C 157.332031 284.523438 125.605469 316.902344 66.9375 273.210938 " fill-opacity="1" fill-rule="nonzero"/><path fill="#4d3236" d="M 247.289062 63.941406 C 254.230469 71.203125 246.390625 73.683594 246.390625 73.683594 C 246.390625 73.683594 236.191406 104.414062 254.050781 111.605469 C 254.050781 111.605469 271.328125 113.464844 275.476562 123.179688 C 279.625 132.898438 274.425781 149.589844 291.761719 149.828125 C 286.53125 144.140625 290.121094 139.003906 290.121094 139.003906 C 307.257812 116.5 278.351562 95.265625 278.351562 95.265625 C 268.277344 85.546875 267.246094 60.527344 267.246094 60.527344 C 267.246094 60.527344 269.601562 34.132812 241.253906 33.890625 C 212.914062 33.652344 211.1875 42.933594 211.1875 42.933594 C 211.1875 42.933594 207.542969 51.972656 216.546875 57.730469 L 216.851562 51.835938 C 216.851562 51.835938 221.953125 65.050781 247.289062 63.941406 " fill-opacity="1" fill-rule="nonzero"/><path fill="#4d3236" d="M 101.5625 104.597656 C 104.132812 123.21875 137.875 120.328125 142.050781 116.152344 C 146.226562 111.980469 151.777344 113.183594 151.777344 113.183594 C 141.746094 105.960938 142.292969 81.1875 142.292969 81.1875 C 142.292969 81.1875 137.714844 76.820312 139.160156 74.007812 C 140.605469 71.1875 141.328125 77.304688 144.21875 76.402344 C 147.113281 75.5 148.925781 63.886719 148.925781 63.886719 C 149.921875 62.371094 150.859375 60.792969 151.585938 59.128906 C 151.632812 61.152344 151.492188 63.21875 151.46875 65.113281 C 151.464844 65.558594 151.929688 66.042969 152.394531 65.96875 C 155.804688 65.417969 159.214844 64.867188 162.628906 64.316406 C 163.03125 64.253906 163.351562 64.050781 163.457031 63.632812 C 164.890625 58.136719 163.292969 50.027344 158.476562 46.558594 C 155.289062 44.261719 151.40625 43.253906 147.535156 42.917969 C 140.308594 42.289062 131.753906 42.867188 125.03125 45.78125 C 125.03125 45.78125 115.71875 49.6875 111.371094 63.171875 C 107.023438 76.660156 101.5625 104.597656 101.5625 104.597656 " fill-opacity="1" fill-rule="nonzero"/><path fill="#4d3236" d="M 217.457031 68.992188 C 217.757812 70.226562 218.664062 71.066406 219.488281 70.867188 C 220.3125 70.667969 220.738281 69.507812 220.441406 68.277344 C 220.144531 67.042969 219.234375 66.203125 218.410156 66.402344 C 217.589844 66.601562 217.160156 67.761719 217.457031 68.992188 " fill-opacity="1" fill-rule="nonzero"/><path fill="#4d3236" d="M 223.273438 79.449219 C 223.054688 80.589844 222.183594 81.453125 220.839844 81.148438 C 219.785156 80.910156 219.34375 82.523438 220.394531 82.765625 C 221.71875 83.0625 223.054688 82.832031 223.964844 81.761719 C 224.410156 81.242188 224.761719 80.570312 224.894531 79.894531 C 225.097656 78.839844 223.480469 78.386719 223.273438 79.449219 " fill-opacity="1" fill-rule="nonzero"/><path fill="#4d3236" d="M 216.535156 60.101562 C 218.546875 59.113281 220.832031 59.855469 222.164062 61.574219 C 222.648438 62.207031 223.746094 61.582031 223.246094 60.9375 C 221.476562 58.648438 218.589844 57.699219 215.898438 59.015625 C 215.171875 59.375 215.808594 60.457031 216.535156 60.101562 " fill-opacity="1" fill-rule="nonzero"/><path fill="#4d3236" d="M 151.40625 84.898438 C 151.628906 86.042969 152.5 86.902344 153.84375 86.597656 C 154.894531 86.363281 155.34375 87.972656 154.289062 88.214844 C 152.964844 88.515625 151.628906 88.285156 150.714844 87.214844 C 150.273438 86.695312 149.921875 86.023438 149.789062 85.347656 C 149.585938 84.289062 151.199219 83.839844 151.40625 84.898438 " fill-opacity="1" fill-rule="nonzero"/><path fill="#4d3236" d="M 158.804688 74.46875 C 158.132812 74.101562 157.332031 74.1875 156.925781 74.992188 C 156.605469 75.625 155.605469 75.175781 155.921875 74.539062 C 156.320312 73.75 157 73.167969 157.921875 73.152344 C 158.371094 73.144531 158.855469 73.25 159.253906 73.464844 C 159.875 73.800781 159.429688 74.8125 158.804688 74.46875 " fill-opacity="1" fill-rule="nonzero"/><path fill="#4d3236" d="M 158.148438 65.554688 C 156.132812 64.5625 153.851562 65.308594 152.519531 67.027344 C 152.03125 67.65625 150.941406 67.035156 151.433594 66.394531 C 153.207031 64.101562 156.097656 63.148438 158.785156 64.46875 C 159.511719 64.828125 158.875 65.910156 158.148438 65.554688 " fill-opacity="1" fill-rule="nonzero"/><path fill="#066255" d="M 56.417969 377.027344 C 56.519531 377.375 56.535156 377.691406 56.472656 377.980469 C 55.882812 380.804688 48.3125 380.964844 48.3125 380.964844 C 36.980469 380.300781 35.085938 370.609375 33.898438 367.226562 C 32.710938 363.839844 26.933594 359.09375 24.457031 356.945312 C 21.980469 354.796875 20.023438 348.035156 21.773438 345.128906 C 23.515625 342.226562 32.53125 340.839844 32.53125 340.839844 C 32.53125 340.839844 41.753906 340.90625 45.050781 352.171875 C 45.050781 352.171875 52.894531 367.757812 54.484375 370.027344 " fill-opacity="1" fill-rule="nonzero"/><g clip-path="url(#id3)"><path fill="#066255" d="M 136.824219 391.707031 C 136.824219 391.707031 131.695312 397.105469 123.101562 391.707031 C 116.628906 400.546875 118.296875 407.664062 118.296875 407.664062 C 118.296875 407.664062 119.660156 411.148438 129.664062 411.601562 C 139.667969 412.058594 140.730469 407.664062 140.730469 407.058594 C 140.730469 406.453125 142.011719 402.707031 136.824219 391.707031 " fill-opacity="1" fill-rule="nonzero"/></g><path fill="#066255" d="M 140.871094 405.242188 C 140.871094 405.242188 141.296875 400.699219 143.0625 397.367188 C 144.820312 394.035156 139.933594 389.15625 136.84375 389.175781 C 136.824219 391.707031 134.96875 394.636719 134.96875 394.636719 L 140.871094 405.242188 " fill-opacity="1" fill-rule="nonzero"/></svg>